<svg xmlns="http://www.w3.org/2000/svg" xmlns:xlink="http://www.w3.org/1999/xlink" width="187" zoomAndPan="magnify" viewBox="0 0 140.25 135.000003" height="180" preserveAspectRatio="xMidYMid meet" version="1.0"><defs><clipPath id="280ab28ad7"><path d="M 0.355469 0.203125 L 138.546875 0.203125 L 138.546875 133.789062 L 0.355469 133.789062 Z M 0.355469 0.203125 " clip-rule="nonzero"/></clipPath><clipPath id="28a691a549"><path d="M 53.441406 18.507812 L 83.480469 18.507812 L 83.480469 79.429688 L 53.441406 79.429688 Z M 53.441406 18.507812 " clip-rule="nonzero"/></clipPath><clipPath id="ad34e15155"><path d="M 38.433594 18.507812 L 68.472656 18.507812 L 68.472656 79.429688 L 38.433594 79.429688 Z M 38.433594 18.507812 " clip-rule="nonzero"/></clipPath></defs><g clip-path="url(#280ab28ad7)"><path fill="#000000" d="M 125.132812 -13.355469 L 76.101562 -13.355469 L 76.101562 11.054688 L 62.800781 11.054688 L 62.800781 -26.734375 L 138.429688 -26.734375 L 138.429688 65.128906 C 138.429688 84.15625 130.578125 101.566406 118.144531 114.207031 C 105.582031 126.71875 88.4375 134.488281 69.402344 134.488281 C 50.496094 134.488281 33.191406 126.71875 20.628906 114.207031 C 8.195312 101.566406 0.472656 84.15625 0.472656 65.128906 L 0.472656 -26.734375 L 37.933594 -26.734375 L 37.933594 -13.355469 L 13.769531 -13.355469 L 13.769531 65.128906 C 13.769531 80.511719 19.988281 94.539062 30.082031 104.695312 C 40.175781 114.851562 54.085938 121.109375 69.402344 121.109375 C 84.71875 121.109375 98.628906 114.851562 108.722656 104.695312 C 118.816406 94.539062 125.132812 80.542969 125.132812 65.128906 Z M 37.902344 11.054688 L 37.902344 65.128906 C 37.902344 73.773438 41.523438 81.640625 47.226562 87.410156 C 52.929688 93.183594 60.78125 96.796875 69.371094 96.796875 C 77.957031 96.796875 85.90625 93.152344 91.515625 87.410156 C 97.25 81.640625 100.839844 73.773438 100.839844 65.128906 L 100.839844 -2.324219 L 114.140625 -2.324219 L 114.140625 65.128906 C 114.140625 77.511719 109.042969 88.796875 100.96875 96.925781 C 92.890625 105.050781 81.675781 110.078125 69.371094 110.078125 C 57.066406 110.078125 45.847656 105.082031 37.773438 96.925781 C 29.695312 88.765625 24.699219 77.511719 24.699219 65.128906 L 24.699219 -2.324219 L 37.902344 -2.324219 Z M 37.902344 11.054688 " fill-opacity="1" fill-rule="nonzero"/></g><path fill="#fbb03b" d="M 98.839844 17.261719 C 98.839844 17.261719 100.894531 26.050781 93.078125 29.472656 C 90.660156 30.53125 88.214844 31.75 84.492188 32.414062 C 84.492188 32.414062 90.914062 45.667969 80.925781 62.71875 C 80.925781 62.71875 91.101562 52.871094 91.367188 38.914062 C 91.367188 38.914062 92.351562 37.289062 98.839844 30.554688 C 101.320312 27.972656 101.859375 21.246094 98.839844 17.261719 " fill-opacity="1" fill-rule="nonzero"/><g clip-path="url(#28a691a549)"><path fill="#f09c13" d="M 55.398438 18.550781 C 55.398438 18.550781 54.242188 29.875 67.320312 31.046875 C 79.09375 32.097656 83.039062 31.578125 83.039062 37.996094 C 83.039062 45.089844 82.152344 68.796875 56.496094 79.429688 C 56.496094 79.429688 80.144531 63.613281 74.308594 41.679688 C 71.910156 32.667969 59.894531 38.878906 55.449219 30.636719 C 51.84375 23.953125 55.398438 18.550781 55.398438 18.550781 " fill-opacity="1" fill-rule="nonzero"/></g><path fill="#f09c13" d="M 84.945312 24.96875 C 85.582031 27.542969 84.335938 30.070312 82.15625 30.609375 C 79.976562 31.152344 77.691406 29.503906 77.050781 26.925781 C 76.410156 24.351562 77.660156 21.828125 79.839844 21.285156 C 82.019531 20.746094 84.304688 22.394531 84.945312 24.96875 " fill-opacity="1" fill-rule="nonzero"/><path fill="#fbb03b" d="M 83.832031 17.261719 C 83.832031 17.261719 85.890625 26.050781 78.070312 29.472656 C 75.652344 30.53125 73.207031 31.75 69.484375 32.414062 C 69.484375 32.414062 75.90625 45.667969 65.917969 62.71875 C 65.917969 62.71875 76.09375 52.871094 76.359375 38.914062 C 76.359375 38.914062 77.34375 37.289062 83.832031 30.554688 C 86.3125 27.972656 86.851562 21.246094 83.832031 17.261719 " fill-opacity="1" fill-rule="nonzero"/><g clip-path="url(#ad34e15155)"><path fill="#f09c13" d="M 40.390625 18.550781 C 40.390625 18.550781 39.234375 29.875 52.3125 31.046875 C 64.085938 32.097656 68.03125 31.578125 68.03125 37.996094 C 68.03125 45.089844 67.144531 68.796875 41.488281 79.429688 C 41.488281 79.429688 65.136719 63.613281 59.300781 41.679688 C 56.902344 32.667969 44.886719 38.878906 40.441406 30.636719 C 36.835938 23.953125 40.390625 18.550781 40.390625 18.550781 " fill-opacity="1" fill-rule="nonzero"/></g><path fill="#f09c13" d="M 69.9375 24.96875 C 70.578125 27.542969 69.328125 30.070312 67.148438 30.609375 C 64.96875 31.152344 62.683594 29.503906 62.042969 26.925781 C 61.402344 24.351562 62.652344 21.828125 64.832031 21.285156 C 67.011719 20.746094 69.296875 22.394531 69.9375 24.96875 " fill-opacity="1" fill-rule="nonzero"/></svg>